<svg xmlns="http://www.w3.org/2000/svg" width="49" height="9"><path fill-rule="evenodd" d="M0 8.88V.14h1.58v8.74zM11.1 9C8.2 9 6.88 6.9 6.88 4.5S8.2 0 11.1 0c2.9 0 4.25 2.13 4.25 4.5S14 9 11.1 9zm0-1.4c1.9 0 2.58-1.44 2.58-3.1 0-1.64-.7-3.1-2.57-3.1S8.55 2.87 8.55 4.5c0 1.66.7 3.1 2.57 3.1zm9.54 1.28V.14h1.58V7.4h3.75v1.48zm13.6.12C31.34 9 30 6.9 30 4.5S31.32 0 34.2 0c1.74 0 3.14.88 3.85 2.5l-1.48.6c-.34-1.16-1.24-1.6-2.4-1.6-1.85 0-2.65 1.32-2.65 2.94 0 1.74.8 3.07 2.7 3.07 1.12 0 1.9-.43 2.37-1.6l1.46.58C37.38 8.12 35.98 9 34.24 9zm8.92-.12V.14H49v1.44h-4.26v2.2h3.97v1.45h-3.96V7.4H49v1.48z"/></svg>