<svg xmlns="http://www.w3.org/2000/svg" width="49" height="9"><path fill-rule="evenodd" d="M0 8.9V0h1.6v9zm11.1.1C8.2 9 6.9 6.9 6.9 4.5S8.2 0 11 0s4.3 2.1 4.3 4.5S14 9 11 9zm0-1.4c1.9 0 2.6-1.4 2.6-3.1 0-1.6-.7-3.1-2.6-3.1S8.6 2.9 8.6 4.5c0 1.7.7 3.1 2.6 3.1zm9.5 1.3V0h1.6v7.3H26v1.5zm13.6.1C31.3 9 30 6.9 30 4.5S31.3 0 34.2 0a4 4 0 0 1 3.9 2.5l-1.5.6c-.4-1.2-1.3-1.6-2.4-1.6-1.9 0-2.7 1.3-2.7 3s.8 3 2.7 3c1.1 0 2-.4 2.4-1.6l1.4.6A4 4 0 0 1 34.2 9zm9-.1V0H49v1.5h-4.3v2.2h4v1.4h-4v2.2H49v1.5z"/></svg>